<svg width="942" height="593" viewBox="0 0 942 593" fill="none" xmlns="http://www.w3.org/2000/svg">
<path d="M-91.4458 3.09586C-90.8975 4.92896 -89.6183 10.4282 -88.5219 15.5609C-85.4152 30.0424 -75.9125 58.0888 -67.3236 77.5196C-45.9425 126.28 -8.84549 176.14 32.4547 211.702C51.46 228.017 85.0849 252.58 85.0849 250.197C85.0849 249.464 83.623 246.715 81.6128 244.148C70.6481 228.384 58.0388 195.204 52.3737 167.708C49.2671 152.677 49.0844 152.127 40.3126 145.528C17.4696 128.296 -20.1756 93.6509 -40.0947 71.4704C-54.5315 55.3391 -75.9125 26.3762 -83.9533 11.8947C-90.5321 0.162903 -93.2732 -3.13667 -91.4458 3.09586Z" fill="black" fill-opacity="0.7"/>
<path d="M954.215 3.27919C951.84 10.4283 928.814 43.7906 913.281 62.4882C895.554 83.7522 861.93 116.198 837.076 135.995C827.026 144.061 818.254 151.21 817.523 151.943C816.792 152.493 814.964 159.642 813.32 167.708C807.655 195.204 794.132 230.033 782.619 246.348C778.416 252.397 778.781 252.214 795.045 241.215C814.964 228.017 831.229 214.085 853.706 191.722C890.986 154.326 918.763 112.898 937.768 65.6045C947.454 41.2243 957.87 5.66222 956.225 1.44609C955.86 0.162933 954.946 0.896164 954.215 3.27919Z" fill="black" fill-opacity="0.7"/>
<path d="M59.5007 144.611C59.5007 145.711 61.1454 155.243 63.3384 166.058C67.7242 189.338 76.6787 215.185 85.9986 232.233C98.9734 255.697 140.822 292.725 179.198 314.356L188.335 319.488L181.025 311.973L173.898 304.274L181.939 304.09C191.076 304.09 191.442 304.64 173.167 293.642C159.462 285.393 146.121 274.211 137.898 263.762L131.867 256.063L138.629 256.98C142.284 257.346 145.39 257.53 145.39 257.163C145.39 256.98 142.101 251.664 138.081 245.431C130.588 233.883 124.558 219.768 122.547 208.769C121.634 203.453 119.258 201.254 108.476 194.288C94.4048 185.306 73.0238 163.675 65.714 150.843C60.9627 142.961 59.5007 141.495 59.5007 144.611Z" fill="black" fill-opacity="0.7"/>
<path d="M798.7 152.493C791.207 165.142 769.644 186.772 755.938 195.204C746.435 201.254 744.608 203.27 742.963 209.686C739.674 222.518 733.643 236.266 726.333 247.448L719.389 258.263L725.785 257.163C729.257 256.613 731.998 256.98 731.998 257.896C731.998 258.813 726.882 264.862 720.668 271.278C709.155 282.826 693.439 294.192 682.84 298.774C675.348 301.891 675.713 303.907 684.12 304.64L690.881 305.19L682.658 313.256L674.434 321.322L683.571 316.189C701.297 306.107 730.171 285.576 745.339 272.195C776.04 245.248 791.938 216.468 801.258 171.191C807.837 138.562 807.654 137.279 798.7 152.493Z" fill="black" fill-opacity="0.7"/>
<path d="M-57.4553 165.692C-57.4553 166.242 -55.4451 171.924 -53.0695 178.157C-31.5057 236.083 17.8352 293.825 81.4301 336.17C101.166 349.185 123.461 362.016 123.461 360.183C123.461 359.45 119.441 354.501 114.689 349.001C99.339 331.77 84.5367 302.624 78.3234 277.877C75.765 267.245 74.8513 265.779 67.907 262.113C50.9118 252.58 2.4847 219.585 -14.6932 205.653C-24.9269 197.404 -38.8154 184.756 -45.3942 177.607C-51.973 170.458 -57.4553 164.958 -57.4553 165.692Z" fill="black" fill-opacity="0.7"/>
<path d="M913.098 175.774C898.113 193.738 852.975 228.017 808.386 255.513L790.111 266.695L786.639 280.077C780.609 303.907 766.72 330.304 748.994 351.384C744.425 356.7 741.501 361.1 742.05 361.1C745.339 361.1 787.918 334.337 805.096 321.505C828.853 303.724 864.305 268.528 880.57 246.531C887.148 237.366 896.834 222.334 902.133 212.986C911.453 196.304 922.966 168.991 921.504 167.525C920.956 166.975 917.301 170.641 913.098 175.774Z" fill="black" fill-opacity="0.7"/>
<path d="M131.867 200.704C137.715 229.483 153.614 256.796 169.513 265.045C176.822 268.895 175.361 269.628 164.03 267.795C158.731 267.062 154.528 266.879 154.528 267.428C154.71 267.978 159.096 272.011 164.396 276.411C174.447 284.476 200.396 297.491 210.813 299.691C218.854 301.341 218.123 303.724 208.985 306.29C197.107 309.59 197.107 310.873 208.254 315.089C221.777 320.038 242.793 323.338 253.027 321.871L261.433 320.772L255.22 325.721L249.189 330.854L261.798 331.037C274.042 331.22 285.555 334.886 294.144 341.486C297.434 343.869 297.251 344.052 291.951 343.135C288.662 342.769 283.91 342.952 281.169 343.685C276.052 344.968 276.052 344.968 284.459 349.185C293.596 353.951 301.271 362.749 305.474 373.565C308.033 380.164 308.033 380.164 304.926 376.681C299.992 370.998 296.154 368.432 290.306 366.782L285.007 365.316L285.738 375.764C286.286 383.28 284.824 394.279 280.621 413.343C275.687 436.073 274.773 443.039 275.504 457.887C276.052 473.102 276.966 477.501 281.9 487.767C289.027 503.348 298.53 513.797 310.408 519.479C337.637 532.494 369.435 523.879 381.496 500.415C393.009 478.418 383.871 446.889 363.404 437.723C356.643 434.79 354.45 434.607 348.967 436.257C340.378 439.19 336.358 447.072 339.099 455.688C341.475 462.837 344.033 463.753 344.947 457.704C345.678 451.838 352.074 451.655 357.922 457.521C364.866 464.486 364.866 477.501 358.105 485.75C343.12 503.531 325.211 498.215 312.601 472.002C308.215 463.203 307.667 460.27 308.398 450.188C309.312 438.64 316.987 418.109 321.921 414.076C323.931 412.426 324.48 413.16 324.48 418.842C324.48 424.342 325.028 425.258 326.855 423.608C331.424 419.942 338.916 403.994 343.302 388.779C345.678 380.347 348.236 374.115 348.785 375.031C349.333 375.948 350.795 380.347 352.074 384.93L354.267 393.179L356.643 385.847C357.922 381.814 359.018 370.998 359.018 361.65C359.201 334.52 350.064 311.973 333.251 298.224C316.622 284.843 303.647 280.077 246.813 267.795C209.716 259.729 196.376 254.963 178.65 243.048C167.137 235.349 146.852 215.735 135.705 201.62L130.771 195.204L131.867 200.704Z" fill="black" fill-opacity="0.7"/>
<path d="M731.816 197.954C729.44 203.82 711.166 223.984 699.47 233.883C679.917 250.197 659.815 258.996 623.266 266.695C559.306 280.443 542.676 287.043 526.412 304.457C511.609 320.588 504.117 343.869 505.944 367.516C507.041 381.447 512.158 398.862 512.706 390.429C512.889 387.863 513.985 382.914 515.447 379.431C518.005 372.282 518.005 372.282 522.574 390.063C525.863 403.078 532.808 417.743 537.194 421.409C539.752 423.425 540.117 423.425 540.117 420.492C540.117 418.476 540.848 415.909 541.762 414.443C543.955 411.143 551.813 426.358 555.651 441.206C560.037 457.337 556.382 471.452 544.503 485.567C533.721 498.582 521.112 499.682 510.147 488.5C499.914 478.235 499.183 463.753 508.685 456.421C514.716 451.471 520.381 452.388 521.843 458.254L522.94 462.837L525.132 458.804C531.346 447.439 524.036 435.707 510.878 435.707C506.127 435.707 501.376 437.173 498.452 439.373C475.426 456.604 472.137 492.899 492.056 511.78C505.944 525.162 533.356 529.195 551.996 520.946C577.214 509.581 593.113 479.335 590.738 447.255C590.189 439.74 587.631 424.342 584.89 413.343C578.859 387.68 577.397 373.931 580.138 368.615C582.149 364.949 581.966 364.766 577.214 365.866C571.184 367.332 560.219 375.031 560.219 377.964C560.219 379.064 559.671 379.614 559.123 379.064C557.478 377.231 563.143 365.683 569.539 358.35C573.011 354.501 579.042 349.918 582.88 348.085L590.189 344.969L583.428 343.685C579.59 342.952 575.022 342.769 572.829 343.319C566.067 345.152 572.463 339.836 582.697 335.253C589.093 332.503 595.854 331.037 603.53 331.037C609.926 330.854 615.042 330.487 615.042 329.937C615.042 329.571 612.85 327.371 610.108 325.171L605.174 321.322L614.494 322.055C624.911 323.155 649.216 318.755 661.094 313.623L668.952 310.323L661.642 307.94C646.292 302.991 646.292 302.441 660.18 297.858C667.307 295.658 678.455 290.892 684.851 287.226C697.826 280.077 715.369 265.045 709.156 266.512C707.145 266.879 701.846 267.795 697.277 268.528C690.15 269.445 689.602 269.262 692.709 267.245C703.125 260.646 709.156 254.78 716.465 243.782C724.872 231.5 734.557 206.02 733.461 199.237C733.095 196.121 732.547 195.938 731.816 197.954Z" fill="black" fill-opacity="0.7"/>
<path d="M86.1814 275.861C91.481 304.64 108.842 333.603 137.35 361.283C154.893 377.964 166.223 386.03 176.822 388.78C184.132 390.796 185.777 390.613 196.376 385.847C207.706 380.714 207.889 380.531 206.975 374.481C205.331 364.583 193.452 341.669 188.153 338.186C185.411 336.536 171.706 328.471 157.452 320.222C124.923 301.707 107.014 289.609 94.5877 277.877L84.7195 268.528L86.1814 275.861Z" fill="black" fill-opacity="0.7"/>
<path d="M770.74 278.06C761.055 287.959 738.212 303.174 707.328 320.772C677.175 337.819 672.607 341.302 667.855 350.651C664.566 356.884 657.073 376.681 657.073 378.697C657.073 379.981 672.972 388.23 677.724 389.329C690.333 392.262 706.414 382.914 731.268 358.35C749.907 339.836 763.43 320.405 772.019 299.874C776.954 288.142 781.522 268.895 779.329 269.811C778.964 269.811 775.126 273.661 770.74 278.06Z" fill="black" fill-opacity="0.7"/>
<path d="M-4.4596 294.192C21.49 337.453 52.5565 372.098 89.6535 398.678C104.456 409.31 138.081 428.558 138.081 426.541C138.081 425.991 133.695 418.659 128.395 410.043C122.913 401.428 115.969 388.413 112.679 380.897L106.649 367.516L90.5673 358.717C61.1455 342.952 30.6272 321.505 2.66741 296.941L-8.84546 286.859L-4.4596 294.192Z" fill="black" fill-opacity="0.7"/>
<path d="M867.046 292.542C851.696 309.223 803.086 344.052 774.578 358.9L759.593 366.599L751.552 383.83C746.984 393.362 739.491 406.927 734.923 414.076C730.354 421.225 727.065 427.091 727.43 427.091C727.978 427.091 734.74 423.608 742.415 419.576C790.294 394.095 834.153 352.118 864.854 302.991C873.625 288.876 874.539 284.476 867.046 292.542Z" fill="black" fill-opacity="0.7"/>
<path d="M206.61 337.086C200.396 338.553 200.396 339.836 206.062 355.051C210.813 367.699 216.843 374.848 227.808 380.531C237.676 385.48 267.646 395.929 272.032 395.929C277.88 395.929 280.987 375.215 276.601 365.682C274.773 361.65 274.956 360.55 277.149 359.083C280.621 356.7 274.956 352.301 256.133 342.769C242.793 335.986 240.966 335.436 226.894 335.62C218.854 335.803 209.716 336.353 206.61 337.086Z" fill="black" fill-opacity="0.7"/>
<path d="M613.763 339.836C608.646 342.219 600.24 347.168 594.941 350.651C587.265 355.967 585.986 357.434 588.362 358.717C591.103 360.183 591.103 360.916 588.362 367.516C585.072 375.398 585.986 387.496 590.372 393.362C592.748 396.662 593.479 396.662 614.129 389.696C643.002 379.981 649.764 375.398 656.891 360.733C659.997 354.501 663.104 346.618 663.652 343.502C664.749 338.003 664.383 337.819 657.622 336.72C641.723 333.97 623.631 335.253 613.763 339.836Z" fill="black" fill-opacity="0.7"/>
<path d="M120.72 379.797C146.67 432.591 169.878 460.087 188.883 460.087C192.173 460.087 197.838 457.521 203.686 453.121C211.544 447.439 212.64 445.972 210.082 444.506C199.665 438.09 190.528 429.658 179.746 416.093C168.599 402.161 165.309 399.412 142.649 385.48C128.943 377.231 117.43 370.265 116.882 370.265C116.517 370.265 118.161 374.665 120.72 379.797Z" fill="black" fill-opacity="0.7"/>
<path d="M723.044 385.48C700.201 399.412 697.46 401.611 685.764 416.459C675.165 430.024 662.19 441.573 654.698 444.139C649.033 445.972 669.683 460.087 678.089 460.087C691.612 460.087 713.542 437.723 731.633 405.644C740.588 389.513 748.994 371.915 748.08 370.998C747.715 370.815 736.384 377.231 723.044 385.48Z" fill="black" fill-opacity="0.7"/>
<path d="M199.3 394.829C186.325 400.878 184.68 403.261 188.518 410.96C198.021 429.474 207.158 435.34 230.366 438.09C239.504 439.006 250.468 439.923 255.037 439.923H263.26L267.098 422.508L270.753 405.094L261.616 400.695C237.859 389.513 215.199 387.313 199.3 394.829Z" fill="black" fill-opacity="0.7"/>
<path d="M623.997 392.996C619.428 394.279 610.839 397.578 604.991 400.328C595.854 404.544 594.575 405.644 595.671 409.127C596.22 411.51 598.047 419.392 599.692 426.541L602.616 439.923H611.205C625.824 439.923 651.774 436.257 656.891 433.507C663.287 430.207 672.424 419.942 677.175 410.593L680.83 403.261L673.886 398.678C670.048 396.112 664.018 393.179 660.546 392.262C652.139 389.879 634.23 390.246 623.997 392.996Z" fill="black" fill-opacity="0.7"/>
<path d="M363.404 425.258C354.815 429.108 353.17 432.59 359.932 432.59C362.308 432.59 367.242 434.79 371.079 437.357C378.024 441.939 378.206 441.939 386.064 439.006C393.009 436.257 399.405 430.574 399.405 426.725C399.405 424.708 386.612 421.592 378.389 421.592C374.369 421.592 367.607 423.242 363.404 425.258Z" fill="black" fill-opacity="0.7"/>
<path d="M473.05 423.608C463.365 426.541 466.472 433.14 480.177 438.823C486.573 441.573 487.304 441.389 494.797 437.173C499.183 434.607 504.482 432.591 506.858 432.591C512.523 432.591 511.975 430.391 505.213 426.358C498.635 422.509 481.457 420.859 473.05 423.608Z" fill="black" fill-opacity="0.7"/>
<path d="M389.354 441.206C385.333 442.856 381.861 444.322 381.496 444.506C381.313 444.689 383.323 449.272 385.881 454.404C390.633 463.387 391.181 463.937 396.481 462.837C407.262 460.637 412.379 457.704 416.948 451.105L421.516 444.506L414.572 441.389C405.983 437.357 398.856 437.357 389.354 441.206Z" fill="black" fill-opacity="0.7"/>
<path d="M451.121 441.023C447.832 442.489 445.091 444.322 445.091 445.422C445.091 446.339 447.649 450.005 450.573 453.488C454.776 458.254 458.614 460.27 465.558 461.92C475.061 463.937 477.802 462.837 477.984 457.154C477.984 456.054 479.629 452.938 481.822 450.188L485.66 445.422L477.071 441.756C467.203 437.54 459.527 437.357 451.121 441.023Z" fill="black" fill-opacity="0.7"/>
<path d="M236.762 446.339C235.3 446.705 230.915 447.439 227.26 448.172C219.402 449.455 210.995 456.971 205.696 467.419L202.041 474.568L209.716 480.984C221.595 491.25 227.077 492.349 242.793 487.583C250.103 485.384 258.509 482.451 261.616 481.168L267.281 478.785L264.539 463.57C263.078 455.138 260.885 447.622 259.788 446.889C257.778 445.605 242.245 445.239 236.762 446.339Z" fill="black" fill-opacity="0.7"/>
<path d="M605.722 446.522C603.529 447.255 602.433 450.738 601.519 458.804C600.971 465.036 599.875 472.369 599.326 474.935C598.413 479.335 598.961 479.701 617.601 485.567L636.972 491.616L646.657 486.85C658.718 480.984 663.287 476.218 661.825 471.452C659.632 465.036 649.946 452.938 644.464 450.005C639.165 447.255 611.387 444.689 605.722 446.522Z" fill="black" fill-opacity="0.7"/>
<path d="M393.922 466.686C391.912 467.419 391.364 469.619 391.729 476.585L392.46 485.567L402.329 487.584C413.659 489.967 416.4 489.417 424.075 483.001L429.557 478.418L422.43 472.002C416.034 466.32 414.207 465.586 405.983 465.77C400.867 465.953 395.384 466.32 393.922 466.686Z" fill="black" fill-opacity="0.7"/>
<path d="M444.725 470.536C437.05 476.402 436.319 478.418 441.07 482.451C448.197 488.867 452.218 489.783 462.451 487.584L472.319 485.567L473.599 477.318C474.147 472.735 474.33 468.519 473.599 467.969C472.868 467.236 467.751 466.32 461.903 465.953C452.583 465.403 450.756 465.77 444.725 470.536Z" fill="black" fill-opacity="0.7"/>
<path d="M251.747 491.25C242.427 495.099 233.656 499.315 232.011 500.598C227.808 504.081 224.336 511.597 223.605 518.746C223.056 524.062 223.97 525.529 229.27 529.195C241.148 537.26 258.143 532.678 275.321 516.546L281.717 510.497L275.139 497.299L268.56 484.284L251.747 491.25Z" fill="black" fill-opacity="0.7"/>
<path d="M590.189 498.032C586.534 505.548 584.341 512.33 585.255 513.064C608.646 533.044 625.642 538.177 636.789 528.645C643.368 523.146 643.733 519.113 638.616 508.481C634.779 500.232 628.931 496.566 606.454 487.95L596.768 484.284L590.189 498.032Z" fill="black" fill-opacity="0.7"/>
<path d="M390.998 494.183C390.267 496.199 388.623 500.415 387.343 503.898C385.881 507.198 384.785 510.314 384.785 510.864C384.785 512.697 405.618 520.946 411.1 521.129C419.324 521.312 428.644 517.096 428.644 513.247C428.644 508.481 420.968 498.032 415.303 495.282C412.745 493.999 406.349 492.35 401.232 491.8C393.374 490.883 391.912 491.25 390.998 494.183Z" fill="black" fill-opacity="0.7"/>
<path d="M455.324 493.083C448.563 495.099 440.339 503.165 437.963 509.764C436.319 514.713 436.684 515.263 441.984 518.013C450.025 522.229 458.979 521.679 470.857 516.18L481.274 511.23L477.253 501.332C473.599 491.8 473.05 491.25 467.02 491.433C463.548 491.433 458.248 492.35 455.324 493.083Z" fill="black" fill-opacity="0.7"/>
<path d="M275.139 526.262C261.981 542.21 259.971 546.976 261.067 558.524C261.616 563.84 262.529 568.973 263.26 570.073C264.905 572.822 277.88 572.273 285.007 569.34C292.499 566.223 295.423 562.007 302.733 544.593C308.033 531.761 308.215 530.661 305.291 528.828C303.464 527.912 298.347 524.245 293.961 520.946C289.575 517.83 285.738 515.08 285.19 515.08C284.824 515.08 280.256 520.029 275.139 526.262Z" fill="black" fill-opacity="0.7"/>
<path d="M373.455 520.946L366.693 526.628L374.003 537.26C384.968 553.392 387.526 555.408 398.674 555.408C406.897 555.408 408.359 554.858 409.09 551.192C410.552 545.693 407.628 533.961 403.79 529.561C400.136 525.529 384.237 515.08 381.861 515.263C380.947 515.263 377.11 517.83 373.455 520.946Z" fill="black" fill-opacity="0.7"/>
<path d="M471.954 521.862C460.441 529.378 456.055 536.527 456.055 547.892V555.408H465.375C470.492 555.408 476.157 554.492 477.984 553.575C481.639 551.559 498.086 529.561 498.086 526.812C498.086 525.529 487.853 517.646 483.284 515.447C482.736 515.263 477.619 518.013 471.954 521.862Z" fill="black" fill-opacity="0.7"/>
<path d="M568.808 522.779C556.564 531.394 556.382 531.944 566.25 551.742C573.56 566.407 580.869 571.906 593.296 571.906H601.885L603.895 562.557C606.271 551.559 605.174 545.693 598.778 536.894C593.844 530.111 580.687 514.897 579.956 515.263C579.59 515.263 574.656 518.746 568.808 522.779Z" fill="black" fill-opacity="0.7"/>
<path d="M352.074 531.395L342.388 534.327L343.485 544.776C345.13 560.724 349.333 569.34 358.47 575.755C367.424 581.988 369.435 581.438 373.089 572.639C377.11 562.741 376.196 554.492 369.252 540.743C365.78 533.594 362.673 528.095 362.308 528.095C362.125 528.278 357.556 529.745 352.074 531.395Z" fill="black" fill-opacity="0.7"/>
<path d="M495.711 542.21C488.218 557.974 487.67 561.824 491.508 570.623C496.259 581.255 496.99 581.805 503.02 578.505C514.533 572.639 519.833 562.741 522.757 542.393L524.036 534.144L515.995 532.128C511.792 531.028 506.858 529.745 505.213 529.012C503.02 528.095 500.827 531.028 495.711 542.21Z" fill="black" fill-opacity="0.7"/>
<path d="M312.784 535.061C310.043 544.593 308.033 562.374 308.946 568.24C309.677 572.089 312.601 579.055 315.525 583.821L321.007 592.437L326.855 587.854C330.145 585.471 334.53 579.788 336.723 575.389C340.195 568.056 340.561 565.673 339.282 551.192C338.551 542.393 337.454 534.877 337.089 534.511C336.723 534.144 331.241 533.411 325.028 533.044C315.708 532.494 313.332 532.861 312.784 535.061Z" fill="black" fill-opacity="0.7"/>
<path d="M538.107 532.861L527.873 533.594L526.594 544.776C524.036 569.706 525.498 575.206 537.193 586.388C543.589 592.62 543.772 592.62 546.513 589.137C556.382 576.305 558.757 561.457 554.189 541.843C551.813 531.761 552.361 532.128 538.107 532.861Z" fill="black" fill-opacity="0.7"/>
</svg>
